# xmcd
#
# Track frame offsets:
#	150
#	13087
#	29612
#	43017
#	56902
#	69274
#	81473
#	93596
#	106386
#
# Disc length: 1566 seconds
#
# Revision: 1
# Processed by: cddbd v1.5.2PL0 Copyright (c) Steve Scherf et al.
# Submitted via: audiograbber 1.83.01
#
DISCID=7a061c09
DTITLE=One More Round (Johnny Cash Tribute) - Summerfield
DYEAR=1900
DGENRE=
TTITLE0=Folsom Prison Blues
TTITLE1=A Boy Named Sue
TTITLE2=Jackson
TTITLE3=Ring Of Fire
TTITLE4=It Ain't Me Babe
TTITLE5=God's Gonna Cut You Down
TTITLE6=Cocaine Blues
TTITLE7=Green Green Grass Of Home
TTITLE8=Summerfield
EXTD=
EXTT0=
EXTT1=
EXTT2=
EXTT3=
EXTT4=
EXTT5=
EXTT6=
EXTT7=
EXTT8=
PLAYORDER=
